<svg width="38" height="26" viewBox="0 0 38 26" fill="none" xmlns="http://www.w3.org/2000/svg">
<path d="M37.0797 9.51875L34.8922 4.05C34.7526 3.70304 34.5124 3.40576 34.2025 3.19638C33.8926 2.987 33.5271 2.87507 33.1531 2.875H27.125V1C27.125 0.83424 27.0592 0.675269 26.9419 0.558058C26.8247 0.440848 26.6658 0.375 26.5 0.375H2.75C2.25272 0.375 1.77581 0.572544 1.42417 0.924175C1.07254 1.27581 0.875 1.75272 0.875 2.25V19.75C0.875 20.2473 1.07254 20.7242 1.42417 21.0758C1.77581 21.4275 2.25272 21.625 2.75 21.625H5.92031C6.07126 22.6656 6.59194 23.6171 7.38705 24.3052C8.18216 24.9933 9.19849 25.372 10.25 25.372C11.3015 25.372 12.3178 24.9933 13.1129 24.3052C13.9081 23.6171 14.4287 22.6656 14.5797 21.625H23.4203C23.5713 22.6656 24.0919 23.6171 24.8871 24.3052C25.6822 24.9933 26.6985 25.372 27.75 25.372C28.8015 25.372 29.8178 24.9933 30.6129 24.3052C31.4081 23.6171 31.9287 22.6656 32.0797 21.625H35.25C35.7473 21.625 36.2242 21.4275 36.5758 21.0758C36.9275 20.7242 37.125 20.2473 37.125 19.75V9.75C37.1247 9.67074 37.1093 9.59226 37.0797 9.51875ZM27.125 4.125H33.1531C33.2781 4.12475 33.4003 4.16199 33.5039 4.2319C33.6075 4.30182 33.6878 4.40119 33.7344 4.51719L35.5766 9.125H27.125V4.125ZM2.125 2.25C2.125 2.08424 2.19085 1.92527 2.30806 1.80806C2.42527 1.69085 2.58424 1.625 2.75 1.625H25.875V12.875H2.125V2.25ZM10.25 24.125C9.63193 24.125 9.02775 23.9417 8.51384 23.5983C7.99994 23.255 7.5994 22.7669 7.36288 22.1959C7.12635 21.6249 7.06447 20.9965 7.18505 20.3903C7.30562 19.7842 7.60325 19.2273 8.04029 18.7903C8.47733 18.3533 9.03415 18.0556 9.64034 17.935C10.2465 17.8145 10.8749 17.8764 11.4459 18.1129C12.0169 18.3494 12.505 18.7499 12.8483 19.2638C13.1917 19.7777 13.375 20.3819 13.375 21C13.375 21.4104 13.2942 21.8167 13.1371 22.1959C12.9801 22.575 12.7499 22.9195 12.4597 23.2097C12.1695 23.4999 11.825 23.7301 11.4459 23.8871C11.0667 24.0442 10.6604 24.125 10.25 24.125ZM23.4203 20.375H14.5797C14.4287 19.3344 13.9081 18.3829 13.1129 17.6948C12.3178 17.0067 11.3015 16.628 10.25 16.628C9.19849 16.628 8.18216 17.0067 7.38705 17.6948C6.59194 18.3829 6.07126 19.3344 5.92031 20.375H2.75C2.58424 20.375 2.42527 20.3092 2.30806 20.1919C2.19085 20.0747 2.125 19.9158 2.125 19.75V14.125H25.875V17.0484C25.2237 17.3582 24.659 17.8238 24.2308 18.4041C23.8026 18.9844 23.5242 19.6614 23.4203 20.375ZM27.75 24.125C27.1319 24.125 26.5277 23.9417 26.0138 23.5983C25.4999 23.255 25.0994 22.7669 24.8629 22.1959C24.6264 21.6249 24.5645 20.9965 24.685 20.3903C24.8056 19.7842 25.1033 19.2273 25.5403 18.7903C25.9773 18.3533 26.5342 18.0556 27.1403 17.935C27.7465 17.8145 28.3749 17.8764 28.9459 18.1129C29.5169 18.3494 30.005 18.7499 30.3483 19.2638C30.6917 19.7777 30.875 20.3819 30.875 21C30.875 21.8288 30.5458 22.6237 29.9597 23.2097C29.3737 23.7958 28.5788 24.125 27.75 24.125ZM35.875 19.75C35.875 19.9158 35.8092 20.0747 35.6919 20.1919C35.5747 20.3092 35.4158 20.375 35.25 20.375H32.0797C31.9138 19.2267 31.2987 18.1914 30.3695 17.4967C29.4403 16.8019 28.2733 16.5047 27.125 16.6703V10.375H35.875V19.75Z" fill="#B02B26"/>
</svg>
