<svg width="40" height="40" viewBox="0 0 40 40" fill="none" xmlns="http://www.w3.org/2000/svg">
<path fill-rule="evenodd" clip-rule="evenodd" d="M30.15 4.24833C29.23 3.73166 28.25 3.68166 27.215 3.80999C26.2317 3.93333 25.0334 4.24332 23.595 4.61832L20.23 5.49166C18.7917 5.86666 17.595 6.17666 16.68 6.54832C15.715 6.93832 14.8817 7.46166 14.3417 8.36999C13.7984 9.28332 13.745 10.26 13.88 11.28C14.0084 12.2417 14.33 13.4083 14.7134 14.7983L15.6184 18.0717C16.0017 19.4633 16.325 20.6283 16.71 21.5217C17.1184 22.4717 17.6634 23.28 18.59 23.8C19.51 24.315 20.49 24.3667 21.5267 24.2367C22.51 24.115 23.7084 23.8033 25.1467 23.4283L28.5117 22.555C29.95 22.1817 31.1467 21.87 32.0617 21.4983C33.0267 21.1083 33.86 20.585 34.4 19.6767C34.9434 18.7633 34.9967 17.7867 34.8617 16.7683C34.7334 15.8067 34.4117 14.6383 34.0284 13.2483L33.1234 9.97499C32.74 8.58499 32.4167 7.41832 32.0317 6.52499C31.6234 5.57499 31.075 4.76666 30.15 4.24833ZM24.1417 7.05833C25.6834 6.65833 26.7217 6.39166 27.525 6.29166C28.2934 6.19499 28.6617 6.27999 28.93 6.42999C29.1917 6.57666 29.4434 6.83166 29.735 7.51332C30.0434 8.22999 30.3234 9.22832 30.7367 10.725L31.5934 13.83C32.0084 15.3267 32.2817 16.3267 32.3834 17.0967C32.48 17.8283 32.3934 18.16 32.25 18.3983C32.105 18.6433 31.8417 18.8917 31.125 19.1817C30.3784 19.4833 29.3417 19.7567 27.8 20.1567L24.6 20.9883C23.0584 21.3883 22.02 21.655 21.2167 21.755C20.4467 21.8533 20.08 21.7683 19.8117 21.6183C19.55 21.4717 19.2984 21.215 19.0067 20.535C18.6984 19.8183 18.4184 18.8183 18.005 17.3217L17.1484 14.2183C16.7334 12.7183 16.46 11.72 16.3584 10.9517C16.2617 10.2183 16.3484 9.88833 16.4917 9.64832C16.6367 9.40333 16.9 9.15499 17.6167 8.86499C18.3634 8.56332 19.4 8.29166 20.9417 7.88999L24.1417 7.05833Z" fill="#B02B26"/>
<path fill-rule="evenodd" clip-rule="evenodd" d="M5.33335 7.87501C5.01759 7.79759 4.6841 7.84625 4.40362 8.01065C4.12314 8.17504 3.91775 8.44225 3.83101 8.75557C3.74428 9.0689 3.78303 9.40369 3.93905 9.68891C4.09506 9.97414 4.35607 10.1874 4.66668 10.2833L7.50502 11.0717C8.21502 11.2683 8.74335 11.805 8.92335 12.4567L12.1767 24.2283C12.0508 24.2533 11.9257 24.2822 11.8017 24.315C8.50668 25.17 6.49335 28.485 7.39668 31.76C8.29668 35.0183 11.72 36.8967 15.0017 36.0433C17.875 35.2983 19.7733 32.6833 19.6133 29.8567L33.6467 26.21C33.8056 26.1687 33.9548 26.0966 34.0858 25.9977C34.2168 25.8987 34.3271 25.775 34.4103 25.6335C34.4935 25.4919 34.5479 25.3354 34.5706 25.1728C34.5933 25.0102 34.5838 24.8447 34.5425 24.6858C34.5013 24.5269 34.4291 24.3777 34.3302 24.2467C34.2313 24.1157 34.1075 24.0054 33.966 23.9223C33.8244 23.8391 33.6679 23.7846 33.5053 23.7619C33.3427 23.7392 33.1773 23.7487 33.0184 23.79L18.955 27.445C18.5343 26.641 17.9422 25.9392 17.2205 25.3892C16.4988 24.8391 15.6651 24.4542 14.7783 24.2617L11.3333 11.79C11.1219 11.0398 10.7197 10.3571 10.1659 9.80855C9.61205 9.26001 8.92558 8.8643 8.17335 8.66001L5.33502 7.87334L5.33335 7.87501ZM12.4317 26.7333C14.4517 26.21 16.4784 27.3817 16.9984 29.265C17.515 31.1317 16.3817 33.1033 14.375 33.625C12.355 34.15 10.3284 32.9767 9.80835 31.0933C9.29168 29.2267 10.425 27.255 12.4317 26.7333Z" fill="#B02B26"/>
</svg>
