<svg width="40" height="40" viewBox="0 0 40 40" fill="none" xmlns="http://www.w3.org/2000/svg">
<path d="M8.33331 28.3333C8.33331 29.2174 8.6845 30.0652 9.30962 30.6904C9.93474 31.3155 10.7826 31.6667 11.6666 31.6667C12.5507 31.6667 13.3985 31.3155 14.0237 30.6904C14.6488 30.0652 15 29.2174 15 28.3333C15 27.4493 14.6488 26.6014 14.0237 25.9763C13.3985 25.3512 12.5507 25 11.6666 25C10.7826 25 9.93474 25.3512 9.30962 25.9763C8.6845 26.6014 8.33331 27.4493 8.33331 28.3333ZM25 28.3333C25 29.2174 25.3512 30.0652 25.9763 30.6904C26.6014 31.3155 27.4493 31.6667 28.3333 31.6667C29.2174 31.6667 30.0652 31.3155 30.6903 30.6904C31.3155 30.0652 31.6666 29.2174 31.6666 28.3333C31.6666 27.4493 31.3155 26.6014 30.6903 25.9763C30.0652 25.3512 29.2174 25 28.3333 25C27.4493 25 26.6014 25.3512 25.9763 25.9763C25.3512 26.6014 25 27.4493 25 28.3333Z" stroke="#B02B26" stroke-width="2" stroke-linecap="round" stroke-linejoin="round"/>
<path d="M8.33333 28.3333H5V10C5 9.55798 5.17559 9.13406 5.48816 8.8215C5.80072 8.50894 6.22464 8.33334 6.66667 8.33334H21.6667V18.3333H13.3333M13.3333 18.3333L16.6667 21.6667M13.3333 18.3333L16.6667 15M15 28.3333H25M21.6667 10H30L35 18.3333V28.3333H31.6667" stroke="#B02B26" stroke-width="2" stroke-linecap="round" stroke-linejoin="round"/>
</svg>
