<svg width="16" height="21" viewBox="0 0 16 21" fill="none" xmlns="http://www.w3.org/2000/svg">
<path d="M8 2C10.2 2 12 3.8 12 6C12 8.1 9.9 11.5 8 13.9C6.1 11.4 4 8.1 4 6C4 3.8 5.8 2 8 2ZM8 0C4.7 0 2 2.7 2 6C2 10.5 8 17 8 17C8 17 14 10.4 14 6C14 2.7 11.3 0 8 0ZM8 4C6.9 4 6 4.9 6 6C6 7.1 6.9 8 8 8C9.1 8 10 7.1 10 6C10 4.9 9.1 4 8 4ZM16 17C16 19.2 12.4 21 8 21C3.6 21 0 19.2 0 17C0 15.7 1.2 14.6 3.1 13.8L3.7 14.7C2.7 15.2 2 15.8 2 16.5C2 17.9 4.7 19 8 19C11.3 19 14 17.9 14 16.5C14 15.8 13.3 15.2 12.2 14.7L12.8 13.8C14.8 14.6 16 15.7 16 17Z" fill="#988C8C"/>
</svg>
