<svg width="36" height="36" viewBox="0 0 36 36" fill="none" xmlns="http://www.w3.org/2000/svg">
<path d="M33.0656 14.2812C32.4562 13.6453 31.8266 12.9891 31.5734 12.3781C31.3391 11.8109 31.3266 10.9719 31.3125 10.0844C31.2906 8.61875 31.2656 6.95938 30.1531 5.84688C29.0406 4.73438 27.375 4.70937 25.9156 4.6875C25.0281 4.67344 24.1969 4.66094 23.6219 4.42656C23.0109 4.17344 22.3547 3.54375 21.7188 2.93438C20.6812 1.94062 19.5063 0.8125 18 0.8125C16.4937 0.8125 15.3187 1.94062 14.2812 2.93438C13.6453 3.54375 12.9891 4.17344 12.3781 4.42656C11.8109 4.66094 10.9719 4.67344 10.0844 4.6875C8.61875 4.70937 6.95938 4.73438 5.84688 5.84688C4.73438 6.95938 4.70937 8.625 4.6875 10.0844C4.67344 10.9719 4.66094 11.8031 4.42656 12.3781C4.17344 12.9891 3.54375 13.6453 2.93438 14.2812C1.94062 15.3187 0.8125 16.4937 0.8125 18C0.8125 19.5063 1.94062 20.6812 2.93438 21.7188C3.54375 22.3547 4.17344 23.0109 4.42656 23.6219C4.66094 24.1891 4.67344 25.0281 4.6875 25.9156C4.70937 27.3813 4.73438 29.0406 5.84688 30.1531C6.95938 31.2656 8.625 31.2906 10.0844 31.3125C10.9719 31.3266 11.8031 31.3391 12.3781 31.5734C12.9891 31.8266 13.6453 32.4562 14.2812 33.0656C15.3187 34.0594 16.4937 35.1875 18 35.1875C19.5063 35.1875 20.6812 34.0594 21.7188 33.0656C22.3547 32.4562 23.0109 31.8266 23.6219 31.5734C24.1891 31.3391 25.0281 31.3266 25.9156 31.3125C27.3813 31.2906 29.0406 31.2656 30.1531 30.1531C31.2656 29.0406 31.2906 27.3813 31.3125 25.9156C31.3266 25.0281 31.3391 24.1969 31.5734 23.6219C31.8266 23.0109 32.4562 22.3547 33.0656 21.7188C34.0594 20.6812 35.1875 19.5063 35.1875 18C35.1875 16.4937 34.0594 15.3187 33.0656 14.2812ZM31.7125 20.4219C30.9828 21.1812 30.2281 21.9688 29.8375 22.9062C29.4656 23.8031 29.45 24.8625 29.4344 25.8875C29.4172 27.05 29.3984 28.2531 28.825 28.8281C28.2516 29.4031 27.0469 29.4203 25.8844 29.4375C24.8594 29.4531 23.8 29.4688 22.9031 29.8406C21.9656 30.2281 21.1844 30.9828 20.4172 31.7156C19.5969 32.4969 18.7484 33.3156 17.9969 33.3156C17.2453 33.3156 16.3969 32.5016 15.575 31.7156C14.8156 30.9859 14.0281 30.2313 13.0906 29.8406C12.1938 29.4688 11.1344 29.4531 10.1094 29.4375C8.94687 29.4203 7.74375 29.4016 7.16875 28.8281C6.59375 28.2547 6.57656 27.05 6.55937 25.8875C6.54375 24.8625 6.52813 23.8031 6.15625 22.9062C5.76875 21.9688 5.01406 21.1875 4.28125 20.4203C3.50156 19.6 2.6875 18.7516 2.6875 18C2.6875 17.2484 3.50156 16.4 4.2875 15.5781C5.01719 14.8188 5.77188 14.0312 6.1625 13.0938C6.53438 12.1969 6.55 11.1375 6.56563 10.1125C6.58281 8.95 6.60156 7.74688 7.175 7.17188C7.74844 6.59688 8.95312 6.57969 10.1156 6.5625C11.1406 6.54688 12.2 6.53125 13.0969 6.15938C14.0344 5.77188 14.8156 5.01719 15.5828 4.28438C16.4 3.50156 17.2484 2.6875 18 2.6875C18.7516 2.6875 19.6 3.50156 20.4219 4.2875C21.1812 5.01719 21.9688 5.77188 22.9062 6.1625C23.8031 6.53438 24.8625 6.55 25.8875 6.56563C27.05 6.58281 28.2531 6.60156 28.8281 7.175C29.4031 7.74844 29.4203 8.95312 29.4375 10.1156C29.4531 11.1406 29.4688 12.2 29.8406 13.0969C30.2281 14.0344 30.9828 14.8156 31.7156 15.5828C32.4969 16.4031 33.3156 17.2516 33.3156 18.0031C33.3156 18.7547 32.4984 19.6 31.7125 20.4219ZM24.9125 13.5875C25.0881 13.7633 25.1867 14.0016 25.1867 14.25C25.1867 14.4984 25.0881 14.7367 24.9125 14.9125L16.1625 23.6625C15.9867 23.8381 15.7484 23.9367 15.5 23.9367C15.2516 23.9367 15.0133 23.8381 14.8375 23.6625L11.0875 19.9125C10.9219 19.7348 10.8317 19.4997 10.836 19.2568C10.8403 19.014 10.9387 18.7822 11.1105 18.6105C11.2822 18.4387 11.514 18.3403 11.7568 18.336C11.9997 18.3317 12.2348 18.4219 12.4125 18.5875L15.5 21.6734L23.5875 13.5875C23.7633 13.4119 24.0016 13.3133 24.25 13.3133C24.4984 13.3133 24.7367 13.4119 24.9125 13.5875Z" fill="#B02B26"/>
</svg>
